<svg width="68" height="11" viewBox="0 0 68 11" fill="none" xmlns="http://www.w3.org/2000/svg">
<path d="M4.158 10.112C6.314 10.112 7.812 9.006 7.812 7.186C7.812 3.364 2.478 4.988 2.478 2.818C2.478 2.132 3.08 1.684 4.046 1.684C5.082 1.684 5.754 2.258 5.838 3.112H7.602C7.518 1.278 6.118 0.0879999 4.046 0.0879999C2.058 0.0879999 0.672 1.208 0.672 2.818C0.672 6.57 5.936 5.114 5.936 7.214C5.936 8.082 5.208 8.502 4.158 8.502C2.982 8.502 2.254 7.802 2.156 6.71H0.378C0.476 8.768 1.932 10.112 4.158 10.112ZM17.3311 10L13.3691 4.092L16.9671 0.199999H14.6571L10.7231 4.47V0.199999H8.86112V10H10.7231V6.948L12.0951 5.464L15.0351 10H17.3311ZM19.9451 10V0.199999H18.0831V10H19.9451ZM23.3835 10V3.098L27.6395 10H29.6275V0.199999H27.7795V7.116L23.5375 0.199999H21.5355V10H23.3835ZM34.4423 10.112C36.5983 10.112 38.0963 9.006 38.0963 7.186C38.0963 3.364 32.7623 4.988 32.7623 2.818C32.7623 2.132 33.3643 1.684 34.3303 1.684C35.3663 1.684 36.0383 2.258 36.1223 3.112H37.8863C37.8023 1.278 36.4023 0.0879999 34.3303 0.0879999C32.3423 0.0879999 30.9563 1.208 30.9563 2.818C30.9563 6.57 36.2203 5.114 36.2203 7.214C36.2203 8.082 35.4923 8.502 34.4423 8.502C33.2663 8.502 32.5383 7.802 32.4403 6.71H30.6623C30.7603 8.768 32.2163 10.112 34.4423 10.112ZM42.9033 10V1.796H45.8573V0.199999H38.0873V1.796H41.0553V10H42.9033ZM53.6067 7.382C53.5367 6.486 53.1027 5.758 52.4307 5.338C53.2427 4.918 53.7467 4.232 53.7467 3.224C53.7467 1.446 52.5427 0.199999 50.4987 0.199999H46.4807V10H48.3427V6.318H50.4567C51.1847 6.318 51.7027 6.85 51.7727 7.592L52.0107 10H53.8447L53.6067 7.382ZM50.4147 1.754C51.5067 1.754 51.9547 2.44 51.9547 3.224C51.9547 4.008 51.5067 4.722 50.4147 4.722H48.3427V1.754H50.4147ZM57.3322 10V0.199999H55.4702V10H57.3322ZM63.3466 10.112C65.7546 10.112 67.5466 8.726 67.7426 6.696H65.8946C65.7266 7.76 64.6906 8.502 63.3466 8.502C61.6386 8.502 60.3506 7.326 60.3506 5.1C60.3506 2.874 61.6386 1.684 63.3466 1.684C64.6626 1.684 65.6986 2.426 65.8386 3.504H67.7706C67.5046 1.474 65.7126 0.0879999 63.3466 0.0879999C60.7846 0.0879999 58.4886 1.768 58.4886 5.1C58.4886 8.432 60.7426 10.112 63.3466 10.112Z" fill="#1A1B1C"/>
</svg>
