<svg width="240" height="77" viewBox="0 0 240 77" fill="none" xmlns="http://www.w3.org/2000/svg">
<path d="M81.988 18L78.082 8.2H77.004L73.098 18H74.344L75.366 15.354H79.734L80.742 18H81.988ZM77.55 9.67L79.314 14.29H75.772L77.55 9.67ZM89.1905 18V16.922H84.2905V8.2H83.1005V18H89.1905ZM96.5186 18V16.922H91.6186V8.2H90.4286V18H96.5186ZM101.714 18.112C104.472 18.112 106.53 15.984 106.53 13.1C106.53 10.216 104.472 8.088 101.714 8.088C98.9562 8.088 96.9122 10.216 96.9122 13.1C96.9122 15.984 98.9562 18.112 101.714 18.112ZM101.714 17.034C99.6562 17.034 98.1442 15.354 98.1442 13.1C98.1442 10.846 99.6562 9.166 101.714 9.166C103.772 9.166 105.298 10.846 105.298 13.1C105.298 15.354 103.772 17.034 101.714 17.034ZM111.278 18L113.714 10.034L116.136 18H117.368L120.364 8.2H119.146L116.71 16.194L114.246 8.2H113.182L110.704 16.194L108.296 8.2H107.05L110.088 18H111.278ZM133.011 18L129.105 8.2H128.027L124.121 18H125.367L126.389 15.354H130.757L131.765 18H133.011ZM128.573 9.67L130.337 14.29H126.795L128.573 9.67ZM134.123 17.244C134.123 16.8987 134.207 16.656 134.375 16.516C134.543 16.376 134.744 16.306 134.977 16.306C135.22 16.306 135.425 16.376 135.593 16.516C135.771 16.656 135.859 16.8987 135.859 17.244C135.859 17.58 135.771 17.8227 135.593 17.972C135.425 18.1213 135.22 18.196 134.977 18.196C134.744 18.196 134.543 18.1213 134.375 17.972C134.207 17.8227 134.123 17.58 134.123 17.244ZM139.087 18V8.2H137.897V18H139.087ZM141.137 17.244C141.137 16.8987 141.221 16.656 141.389 16.516C141.557 16.376 141.758 16.306 141.991 16.306C142.234 16.306 142.439 16.376 142.607 16.516C142.784 16.656 142.873 16.8987 142.873 17.244C142.873 17.58 142.784 17.8227 142.607 17.972C142.439 18.1213 142.234 18.196 141.991 18.196C141.758 18.196 141.557 18.1213 141.389 17.972C141.221 17.8227 141.137 17.58 141.137 17.244ZM77.508 42V33.278H80.63V32.2H73.168V33.278H76.304V42H77.508ZM85.4994 42.112C88.2574 42.112 90.3154 39.984 90.3154 37.1C90.3154 34.216 88.2574 32.088 85.4994 32.088C82.7414 32.088 80.6974 34.216 80.6974 37.1C80.6974 39.984 82.7414 42.112 85.4994 42.112ZM85.4994 41.034C83.4414 41.034 81.9294 39.354 81.9294 37.1C81.9294 34.846 83.4414 33.166 85.4994 33.166C87.5574 33.166 89.0834 34.846 89.0834 37.1C89.0834 39.354 87.5574 41.034 85.4994 41.034ZM98.4328 42.112C100.477 42.112 102.017 41.104 102.017 39.326C102.017 35.644 96.2488 37.198 96.2488 34.692C96.2488 33.754 97.0328 33.166 98.3628 33.166C99.6788 33.166 100.533 33.88 100.645 34.986H101.821C101.681 33.222 100.323 32.088 98.3628 32.088C96.4028 32.088 95.0448 33.138 95.0448 34.692C95.0448 38.192 100.771 36.806 100.771 39.326C100.771 40.516 99.7908 41.034 98.4328 41.034C96.9068 41.034 96.0108 40.152 95.8848 38.794H94.7088C94.8348 40.796 96.2348 42.112 98.4328 42.112ZM107.837 42.112C110.007 42.112 111.757 40.782 111.967 38.948H110.735C110.595 40.152 109.363 41.034 107.837 41.034C105.793 41.034 104.351 39.648 104.351 37.1C104.351 34.552 105.793 33.166 107.837 33.166C109.335 33.166 110.553 34.048 110.721 35.252H111.981C111.715 33.418 109.965 32.088 107.837 32.088C105.401 32.088 103.119 33.712 103.119 37.1C103.119 40.474 105.387 42.112 107.837 42.112ZM121.349 42L117.443 32.2H116.365L112.459 42H113.705L114.727 39.354H119.095L120.103 42H121.349ZM116.911 33.67L118.675 38.29H115.133L116.911 33.67ZM123.652 42V34.048L128.692 42H130.064V32.2H128.874V40.18L123.82 32.2H122.462V42H123.652ZM139.159 42V37.898L142.631 32.2H141.273L138.571 36.75L135.855 32.2H134.497L137.969 37.898V42H139.159ZM147.365 42.112C150.123 42.112 152.181 39.984 152.181 37.1C152.181 34.216 150.123 32.088 147.365 32.088C144.607 32.088 142.563 34.216 142.563 37.1C142.563 39.984 144.607 42.112 147.365 42.112ZM147.365 41.034C145.307 41.034 143.795 39.354 143.795 37.1C143.795 34.846 145.307 33.166 147.365 33.166C149.423 33.166 150.949 34.846 150.949 37.1C150.949 39.354 149.423 41.034 147.365 41.034ZM157.312 42.112C159.538 42.112 161.008 40.782 161.008 38.64V32.2H159.846V38.696C159.846 40.138 158.838 41.034 157.312 41.034C155.8 41.034 154.792 40.138 154.792 38.696V32.2H153.616V38.64C153.616 40.782 155.086 42.112 157.312 42.112ZM168.209 37.352C169.133 36.918 169.749 36.148 169.749 35.07C169.749 33.362 168.559 32.2 166.627 32.2H162.917V42H164.107V38.01H166.767C167.691 38.01 168.307 38.682 168.363 39.634L168.531 42H169.679L169.511 39.564C169.441 38.57 168.979 37.772 168.209 37.352ZM166.627 33.264C167.999 33.264 168.517 34.104 168.517 35.07C168.517 36.036 167.999 36.932 166.627 36.932H164.107V33.264H166.627ZM176.494 42V37.59H180.512V36.512H176.494V33.278H181.436V32.2H175.304V42H176.494ZM189.9 42L185.994 32.2H184.916L181.01 42H182.256L183.278 39.354H187.646L188.654 42H189.9ZM185.462 33.67L187.226 38.29H183.684L185.462 33.67ZM194.982 42.112C197.152 42.112 198.902 40.782 199.112 38.948H197.88C197.74 40.152 196.508 41.034 194.982 41.034C192.938 41.034 191.496 39.648 191.496 37.1C191.496 34.552 192.938 33.166 194.982 33.166C196.48 33.166 197.698 34.048 197.866 35.252H199.126C198.86 33.418 197.11 32.088 194.982 32.088C192.546 32.088 190.264 33.712 190.264 37.1C190.264 40.474 192.532 42.112 194.982 42.112ZM206.91 42V40.922H201.814V37.478H205.832V36.4H201.814V33.278H206.756V32.2H200.624V42H206.91Z" fill="#1A1B1C"/>
<path d="M1 76L63 21" stroke="#1A1B1C"/>
<circle cx="64.5" cy="19.5" r="2" stroke="#1A1B1C"/>
</svg>
